<?xml version="1.0" encoding="UTF-8" standalone="no"?>
<!-- Created with Inkscape (http://www.inkscape.org/) -->

<svg
   xmlns:dc="http://purl.org/dc/elements/1.1/"
   xmlns:cc="http://creativecommons.org/ns#"
   xmlns:rdf="http://www.w3.org/1999/02/22-rdf-syntax-ns#"
   xmlns:svg="http://www.w3.org/2000/svg"
   xmlns="http://www.w3.org/2000/svg"
   xmlns:sodipodi="http://sodipodi.sourceforge.net/DTD/sodipodi-0.dtd"
   xmlns:inkscape="http://www.inkscape.org/namespaces/inkscape"
   width="744.09448819"
   height="1052.3622047"
   id="svg7233"
   version="1.1"
   inkscape:version="0.48.4 r9939"
   sodipodi:docname="asteroid2.svg">
  <defs
     id="defs7235" />
  <sodipodi:namedview
     id="base"
     pagecolor="#ffffff"
     bordercolor="#666666"
     borderopacity="1.0"
     inkscape:pageopacity="0.0"
     inkscape:pageshadow="2"
     inkscape:zoom="2.8"
     inkscape:cx="58.296341"
     inkscape:cy="1093.2529"
     inkscape:document-units="px"
     inkscape:current-layer="layer1"
     showgrid="false"
     inkscape:window-width="1555"
     inkscape:window-height="1028"
     inkscape:window-x="-8"
     inkscape:window-y="-8"
     inkscape:window-maximized="1" />
  <metadata
     id="metadata7238">
    <rdf:RDF>
      <cc:Work
         rdf:about="">
        <dc:format>image/svg+xml</dc:format>
        <dc:type
           rdf:resource="http://purl.org/dc/dcmitype/StillImage" />
        <dc:title />
      </cc:Work>
    </rdf:RDF>
  </metadata>
  <g
     inkscape:label="Layer 1"
     inkscape:groupmode="layer"
     id="layer1">
    <path
       style="fill:#7b6756;fill-opacity:1;stroke:#000000;stroke-width:1.41112518px;stroke-linecap:butt;stroke-linejoin:miter;stroke-opacity:1"
       d="m -9.5679702,50.370903 c 0,0 -11.8433718,-1.763906 -15.6231718,-7.559599 -3.779799,-5.795692 0.251988,-24.694691 0.251988,-24.694691 0,0 -17.639065,-18.64701079 -11.591386,-33.514223 6.047679,-14.867211 22.930783,-36.286075 34.0181958,-35.782103 11.0874123,0.503973 11.3393984,-0.251986 20.4109172,8.567546 9.071526,8.819533 -1.259933,32.002304 -1.259933,32.002304 0,0 22.426805,14.1112513 19.65496,31.750316 -2.771859,17.639066 -8.063578,19.906945 -19.402972,24.190718 -11.3394007,4.283773 -26.4585982,5.039732 -26.4585982,5.039732 z"
       id="path7764"
       inkscape:connector-curvature="0" />
    <path
       style="fill:#a19081;fill-opacity:1;stroke:none"
       d="m -24.776555,17.185928 c 0,0 -14.076335,-16.92723884 -12.472702,-26.0144937 1.603633,-9.0872533 15.85815,-31.1817553 20.669049,-34.3890213 4.810899,-3.207266 11.759977,-7.839985 16.39269393,-7.483622 4.63271837,0.356363 11.04725207,2.672722 11.04725207,2.672722 0,0 -12.1163403,0.178181 -16.3926959,4.454537 -4.2763542,4.276354 1.247271,13.185428 1.247271,13.185428 0,0 -11.7599771,-8.196347 -16.9272391,-0.534544 -5.167262,7.661803 -3.74181,13.719972 -3.74181,13.719972 0,0 -13.719972,2.138178 -9.799981,9.6217993 3.919993,7.48362099 13.541791,4.6327169 13.541791,4.6327169 0,0 -7.305439,0.534545 -6.770895,6.0581703 0.534544,5.5236253 3.207266,14.0763355 3.207266,14.0763355 z"
       id="path7766"
       inkscape:connector-curvature="0" />
    <path
       style="fill:#b9a695;fill-opacity:1;stroke:none"
       d="m -20.143836,46.229506 c 0,0 -7.127259,-3.919991 -6.414534,-11.759975 0.712727,-7.839985 2.672722,-17.283603 2.672722,-17.283603 0,0 -0.890907,13.541791 0.356364,18.352691 1.24727,4.810899 3.385448,10.690887 3.385448,10.690887 z"
       id="path7768"
       inkscape:connector-curvature="0" />
    <path
       style="fill:#655446;fill-opacity:1;stroke:none"
       d="m -18.18384,47.120415 c 0,0 5.701806,4.810898 20.8472306,1.247269 C 17.808814,44.804055 32.77606,38.745885 34.379691,28.41136 35.983322,18.076835 36.874236,9.5241251 29.212433,1.6841407 21.550626,-6.1558438 15.492455,-10.254017 15.492455,-10.254017 c 0,0 6.414534,-14.967243 5.879989,-19.599961 -0.534544,-4.632718 -3.385448,-12.294521 -3.385448,-12.294521 0,0 4.810899,11.581796 -0.356363,13.541792 -5.167263,1.959995 -6.236351,0.534544 -6.236351,0.534544 0,0 10.512707,4.8109 4.989081,11.047251 -5.523625,6.23635 -9.7999809,-0.178182 -9.7999809,-0.178182 0,0 6.9490779,5.345444 10.8690699,11.403613 3.919992,6.05817016 -6.236351,8.1963476 -6.236351,8.1963476 0,0 13.541791,-3.02908469 16.749053,1.7818147 3.207276,4.8108994 -3.74181,6.4145327 -3.74181,6.4145327 0,0 14.610888,10.156343 7.839985,19.243598 -6.770889,9.087254 -14.432696,1.959997 -14.432696,1.959997 0,0 -1.959995,12.29452 -12.6508846,13.185428 -10.6908877,0.890907 -11.5817945,-7.839985 -11.5817945,-7.839985 0,0 1.9599965,7.661803 -4.8108999,9.621798 -6.770894,1.959997 -6.770894,0.356365 -6.770894,0.356365 z"
       id="path7770"
       inkscape:connector-curvature="0" />
    <path
       style="fill:#655446;fill-opacity:1;stroke:none"
       d="m -15.511118,26.629546 c 0,0 8.1963464,4.989081 12.8290648,-0.712727 4.6327169,-5.701806 -0.8909082,-15.85815 -0.8909082,-15.85815 0,0 16.9272394,14.254517 10.1563435,18.709055 -6.77089617,4.454536 -21.7381371,-1.425452 -22.0945001,-2.138178 z"
       id="path7772"
       inkscape:connector-curvature="0" />
    <path
       style="fill:#a19081;fill-opacity:1;stroke:none"
       d="m -7.4929529,-12.926739 c 0,0 -9.6217991,-13.898154 0.3563627,-14.789061 9.9781622,-0.890907 11.5817945,5.701806 11.5817945,5.701806 0,0 -6.9490761,-6.592713 -10.5127063,-3.029084 -3.5636287,3.563629 -1.4254509,12.116339 -1.4254509,12.116339 z"
       id="path7774"
       inkscape:connector-curvature="0" />
  </g>
</svg>
