<?xml version="1.0" encoding="UTF-8" standalone="no"?>
<!-- Created with Inkscape (http://www.inkscape.org/) -->

<svg
   xmlns:dc="http://purl.org/dc/elements/1.1/"
   xmlns:cc="http://creativecommons.org/ns#"
   xmlns:rdf="http://www.w3.org/1999/02/22-rdf-syntax-ns#"
   xmlns:svg="http://www.w3.org/2000/svg"
   xmlns="http://www.w3.org/2000/svg"
   xmlns:xlink="http://www.w3.org/1999/xlink"
   xmlns:sodipodi="http://sodipodi.sourceforge.net/DTD/sodipodi-0.dtd"
   xmlns:inkscape="http://www.inkscape.org/namespaces/inkscape"
   width="744.09448819"
   height="1052.3622047"
   id="svg3934"
   version="1.1"
   inkscape:version="0.48.4 r9939"
   sodipodi:docname="shield.svg">

				<defs>
					<radialGradient id="shieldRadial">
						<stop offset="0%" stop-color="#2123ff" stop-opacity="0" />
						<stop offset="80%" stop-color="#2123ff" stop-opacity="0.2" />
						<stop offset="100%" stop-color="#2123ff" stop-opacity="1" />
					</radialGradient>
					<radialGradient id="gunPowerupRadial">
						<stop offset="0%" stop-color="#ff7000" />
						<stop offset="40%" stop-color="red" />
						<stop offset="90%" stop-color="black" />
						<stop offset="92%" stop-color="red" />
						<stop offset="100%" stop-color="red" />
					</radialGradient>
					<radialGradient id="lifePowerupRadial">
						<stop offset="0%" stop-color="#70ff00" />
						<stop offset="40%" stop-color="green" />
						<stop offset="90%" stop-color="black" />
						<stop offset="92%" stop-color="green" />
						<stop offset="100%" stop-color="green" />
					</radialGradient>
				</defs>
<g transform="translate(100, 100)" >
<circle cx="0" cy="0" r="24" fill="url(#gunPowerupRadial)" />
<path transform="translate(0 -16)" fill="white" stroke="black" stroke-width="2" d="m 0,10 c 0,0 -6,-20 0,-15 6,0 0,15 0,15 z" />
<path fill="white" stroke="black" stroke-width="2" d="m 0,10 c 0,0 -6,-20 0,-15 6,0 0,15 0,15 z" />
<path transform="translate(0 16)" fill="white" stroke="black" stroke-width="2" d="m 0,10 c 0,0 -6,-20 0,-15 6,0 0,15 0,15 z" />
</g>
<g transform="translate(200, 100)">
<circle cx="0" cy="0" r="24" fill="url(#gunPowerupRadial)" />
<path transform="translate(-10 0)" fill="white" stroke="black" stroke-width="2" d="m 0,10 c 0,0 -6,-20 0,-15 6,0 0,15 0,15 z" />
<path transform="translate(10 0)" fill="white" stroke="black" stroke-width="2" d="m 0,10 c 0,0 -6,-20 0,-15 6,0 0,15 0,15 z" />
</g>
<g transform="translate(300, 100)">
<circle cx="0" cy="0" r="24" fill="url(#gunPowerupRadial)" />
<path transform="translate(-10 0) rotate(-20)" fill="white" stroke="black" stroke-width="2" d="m 0,10 c 0,0 -6,-20 0,-15 6,0 0,15 0,15 z" />
<path fill="white" stroke="black" stroke-width="2" d="m 0,10 c 0,0 -6,-20 0,-15 6,0 0,15 0,15 z" />
<path transform="translate(10 0) rotate(20)" fill="white" stroke="black" stroke-width="2" d="m 0,10 c 0,0 -6,-20 0,-15 6,0 0,15 0,15 z" />
</g>
<g transform="translate(400, 100)">
<circle cx="0" cy="0" r="24" fill="url(#gunPowerupRadial)" />
<path transform="translate(-15 10) rotate(-90)" fill="white" stroke="black" stroke-width="2" d="m 0,10 c 0,0 -6,-20 0,-15 6,0 0,15 0,15 z" />
<path transform="translate(-10 -5)" fill="white" stroke="black" stroke-width="2" d="m 0,10 c 0,0 -6,-20 0,-15 6,0 0,15 0,15 z" />
<path transform="translate(0 -10)" fill="white" stroke="black" stroke-width="2" d="m 0,10 c 0,0 -6,-20 0,-15 6,0 0,15 0,15 z" />
<path transform="translate(10 -5)" fill="white" stroke="black" stroke-width="2" d="m 0,10 c 0,0 -6,-20 0,-15 6,0 0,15 0,15 z" />
<path transform="translate(15 10) rotate(90)" fill="white" stroke="black" stroke-width="2" d="m 0,10 c 0,0 -6,-20 0,-15 6,0 0,15 0,15 z" />
</g>

<g transform="translate(500, 100)">
<circle cx="0" cy="0" r="24" fill="url(#lifePowerupRadial)" />
<path fill="white" stroke="black" stroke-width="2" d="M-15 12 L0 -18 L15 12" />
</g>

</svg>
